<?xml version="1.0" encoding="iso-8859-1"?>
<!-- Generator: Adobe Illustrator 16.0.0, SVG Export Plug-In . SVG Version: 6.00 Build 0)  -->
<!DOCTYPE svg PUBLIC "-//W3C//DTD SVG 1.1//EN" "http://www.w3.org/Graphics/SVG/1.1/DTD/svg11.dtd">
<svg version="1.1" id="Capa_1" xmlns="http://www.w3.org/2000/svg" xmlns:xlink="http://www.w3.org/1999/xlink" x="0px" y="0px"
	 width="757.806px" height="757.806px" viewBox="0 0 757.806 757.806" style="enable-background:new 0 0 757.806 757.806;"
	 xml:space="preserve">
<g>
	<g>
		<g>
			<path d="M315.399,626.303H226v-81.3c-28.8-16.101-47.1-46.9-47.1-80.101c0-50.6,41.2-91.8,91.8-91.8s91.8,41.2,91.8,91.8
				c0,33.2-18.3,64-47.101,80.101V626.303L315.399,626.303z M245.7,606.503h49.8v-73.9l5.7-2.7
				c25.199-11.899,41.399-37.399,41.399-65.1c0-39.7-32.3-72-72-72c-39.7,0-72,32.3-72,72c0,27.7,16.3,53.3,41.4,65.1l5.7,2.7
				V606.503L245.7,606.503z"/>
		</g>
		<g>
			<path d="M501.899,740.803H39.3c-21.6,0-39.3-17.6-39.3-39.3v-417.7c0-21.6,17.6-39.3,39.3-39.3h323.1v-190.5
				c-0.6-26.2,9.9-37,37-37h321.4c16.8,0.4,37.4,1.5,37,37v210.8H664v-135.5c0-10-1-17-17.2-17.2h-173.4c-12.8,0-17,4.2-17.199,17.3
				v115.1h45.699c21.601,0,39.301,17.6,39.301,39.3v417.8C541.2,723.203,523.6,740.803,501.899,740.803z M39.3,264.303
				c-10.7,0-19.5,8.7-19.5,19.5v417.8c0,10.7,8.7,19.5,19.5,19.5h462.6c10.7,0,19.5-8.7,19.5-19.5v-417.8
				c0-10.7-8.699-19.5-19.5-19.5h-65.5v-135.1c0-25.9,5.601-37.5,37-36.9h173.4c34,0,36.7,15.5,37,37v115.7H738v-191
				c0-5.2,0-16.4-17.2-17.2h-321.4c-11.8,0-16.899,3.5-17.199,17.2v210.3H39.3z"/>
		</g>
	</g>
</g>
<g>
</g>
<g>
</g>
<g>
</g>
<g>
</g>
<g>
</g>
<g>
</g>
<g>
</g>
<g>
</g>
<g>
</g>
<g>
</g>
<g>
</g>
<g>
</g>
<g>
</g>
<g>
</g>
<g>
</g>
</svg>
